<svg xmlns="http://www.w3.org/2000/svg" viewBox="0 0 109.516 36.4">
    <path fill="#1f2e41" stroke="#1f2e41" d="M46.683 14.965H49.3l-3.162 9.044h-2.347L41.7 18.041l-2.11 5.968h-2.382l-3.103-9.044h2.61l1.863 5.88 2.136-5.88h1.943l2.127 5.862zm9.517 9.211a5.681 5.681 0 01-2.558-.554A4.138 4.138 0 0151.885 22a4.846 4.846 0 01-.637-2.522 4.42 4.42 0 011.371-3.428 5.086 5.086 0 013.581-1.261 5.1 5.1 0 013.586 1.257 4.42 4.42 0 011.371 3.428 4.444 4.444 0 01-1.371 3.441 5.088 5.088 0 01-3.586 1.261zm-.026-2.013a2.319 2.319 0 001.789-.738 2.764 2.764 0 00.681-1.951 2.764 2.764 0 00-.681-1.951 2.319 2.319 0 00-1.789-.738 2.234 2.234 0 00-1.736.743 2.789 2.789 0 00-.672 1.947 2.789 2.789 0 00.672 1.947 2.234 2.234 0 001.731.741zM67.1 16.4a2.933 2.933 0 011.187-1.085 3.62 3.62 0 011.767-.453v2.259a3.423 3.423 0 00-2.162.545 2.379 2.379 0 00-.672 1.934V24h-2.548v-9.035H67.1zM79.168 24l-2.909-3.8h-.527V24h-2.558V10.5h2.558v7.945h.475l2.839-3.48h2.864l-3.56 4.192L82.244 24zm12 0l-2.909-3.8h-.527V24h-2.558V10.5h2.558v7.945h.475l2.839-3.48h2.864l-3.56 4.192L94.244 24zm7.3-10.389a1.421 1.421 0 01-1.037-.426A1.4 1.4 0 0197 12.152a1.382 1.382 0 01.435-1.024 1.425 1.425 0 011.033-.426 1.4 1.4 0 011.02.426 1.389 1.389 0 01.431 1.024 1.4 1.4 0 01-.431 1.033 1.4 1.4 0 01-1.022.426zM97.174 24v-9.035h2.549V24zm10.173 0a2.729 2.729 0 01-2.039-.734 2.854 2.854 0 01-.721-2.087v-4.272h-1.776v-1.942h.571a1.491 1.491 0 001.125-.378 1.946 1.946 0 00.36-1.345v-1.2h2.285v2.918h1.863v1.942h-1.862v4q0 1.169 1.046 1.169h.817V24z"/>
    <path fill="#bfc6f1" d="M5.6 12.6L22.4 7v29.4L5.6 30.8z"/>
    <path fill="#4652af" d="M0 3.314L26.829 0v17.4L0 14.083z"/>
    <path fill="none" stroke="#4652af" stroke-linecap="round" stroke-linejoin="round" d="M14.564 24.957c1.821.692 3.462 3.569 7.327 2.731"/>
</svg>
